<svg width="45" height="45" viewBox="0 0 45 45" fill="none" xmlns="http://www.w3.org/2000/svg">
<path d="M22.5 4.21875C15.5127 4.21875 9.84375 9.61436 9.84375 16.2598C9.84375 23.9063 18.2812 36.0237 21.3794 40.2091C21.508 40.3858 21.6765 40.5295 21.8713 40.6286C22.066 40.7278 22.2815 40.7794 22.5 40.7794C22.7185 40.7794 22.934 40.7278 23.1287 40.6286C23.3235 40.5295 23.492 40.3858 23.6206 40.2091C26.7188 36.0255 35.1562 23.9124 35.1562 16.2598C35.1562 9.61436 29.4873 4.21875 22.5 4.21875Z" stroke="white" stroke-width="3" stroke-linecap="round" stroke-linejoin="round"/>
<path d="M22.5 21.0938C24.83 21.0938 26.7188 19.205 26.7188 16.875C26.7188 14.545 24.83 12.6562 22.5 12.6562C20.17 12.6562 18.2812 14.545 18.2812 16.875C18.2812 19.205 20.17 21.0938 22.5 21.0938Z" stroke="white" stroke-width="3" stroke-linecap="round" stroke-linejoin="round"/>
</svg>
