<svg width="45" height="45" viewBox="0 0 45 45" fill="none" xmlns="http://www.w3.org/2000/svg">
<path d="M30.7028 6.09346C32.8766 6.09995 34.9595 6.96635 36.4966 8.50344C38.0336 10.0405 38.9001 12.1234 38.9065 14.2972V30.7028C38.9001 32.8766 38.0336 34.9595 36.4966 36.4966C34.9595 38.0336 32.8766 38.9001 30.7028 38.9065H14.2972C12.1234 38.9001 10.0405 38.0336 8.50344 36.4966C6.96635 34.9595 6.09995 32.8766 6.09346 30.7028V14.2972C6.09995 12.1234 6.96635 10.0405 8.50344 8.50344C10.0405 6.96635 12.1234 6.09995 14.2972 6.09346H30.7028ZM30.7028 2.8125H14.2972C7.98047 2.8125 2.8125 7.98047 2.8125 14.2972V30.7028C2.8125 37.0195 7.98047 42.1875 14.2972 42.1875H30.7028C37.0195 42.1875 42.1875 37.0195 42.1875 30.7028V14.2972C42.1875 7.98047 37.0195 2.8125 30.7028 2.8125Z" fill="white"/>
<path d="M33.1638 14.2971C32.677 14.2971 32.2013 14.1528 31.7966 13.8824C31.3919 13.612 31.0764 13.2276 30.8902 12.7779C30.7039 12.3283 30.6552 11.8335 30.7501 11.3561C30.8451 10.8787 31.0795 10.4402 31.4236 10.096C31.7678 9.75187 32.2063 9.51749 32.6837 9.42253C33.161 9.32758 33.6559 9.37631 34.1055 9.56257C34.5552 9.74884 34.9396 10.0643 35.21 10.469C35.4804 10.8737 35.6247 11.3495 35.6247 11.8362C35.6254 12.1596 35.5622 12.4799 35.4388 12.7788C35.3154 13.0777 35.1341 13.3492 34.9055 13.5779C34.6768 13.8065 34.4052 13.9878 34.1064 14.1112C33.8075 14.2346 33.4871 14.2978 33.1638 14.2971ZM22.5 15.9372C23.798 15.9372 25.0669 16.3221 26.1461 17.0432C27.2253 17.7643 28.0665 18.7893 28.5632 19.9885C29.06 21.1877 29.1899 22.5072 28.9367 23.7803C28.6835 25.0533 28.0584 26.2227 27.1406 27.1405C26.2228 28.0584 25.0534 28.6834 23.7803 28.9366C22.5073 29.1899 21.1877 29.0599 19.9885 28.5632C18.7893 28.0665 17.7644 27.2253 17.0432 26.146C16.3221 25.0668 15.9372 23.7979 15.9372 22.5C15.9391 20.76 16.6311 19.0918 17.8615 17.8614C19.0918 16.6311 20.76 15.939 22.5 15.9372ZM22.5 12.6562C20.5531 12.6562 18.6499 13.2335 17.0311 14.3152C15.4123 15.3968 14.1506 16.9342 13.4056 18.7329C12.6605 20.5316 12.4656 22.5109 12.8454 24.4204C13.2252 26.3299 14.1627 28.0839 15.5394 29.4605C16.9161 30.8372 18.6701 31.7747 20.5796 32.1546C22.4891 32.5344 24.4683 32.3394 26.267 31.5944C28.0658 30.8493 29.6031 29.5876 30.6848 27.9688C31.7664 26.35 32.3438 24.4469 32.3438 22.5C32.3438 19.8892 31.3066 17.3854 29.4606 15.5394C27.6145 13.6933 25.1107 12.6562 22.5 12.6562Z" fill="white"/>
</svg>
