<svg width="45" height="45" viewBox="0 0 45 45" fill="none" xmlns="http://www.w3.org/2000/svg">
<path fill-rule="evenodd" clip-rule="evenodd" d="M36.4509 8.53427C34.6307 6.71324 32.4683 5.2702 30.0882 4.28823C27.7081 3.30626 25.1573 2.80476 22.5826 2.81259C11.7773 2.81259 2.98125 11.5647 2.97686 22.3243C2.97208 25.7504 3.87518 29.1166 5.59424 32.0802L2.8125 42.1876L13.2056 39.4744C16.0824 41.0329 19.3028 41.8486 22.5747 41.8475H22.5826C33.387 41.8475 42.1822 33.0944 42.1875 22.3357C42.194 19.7698 41.6902 17.2282 40.7054 14.8588C39.7205 12.4894 38.2743 10.3395 36.4509 8.53427ZM22.5826 38.5542H22.5756C19.6588 38.5551 16.7951 37.7745 14.2822 36.2936L13.6872 35.9421L7.51992 37.5522L9.16611 31.5678L8.77852 30.9525C7.1476 28.3705 6.28352 25.3783 6.28682 22.3243C6.28682 13.3832 13.6002 6.10849 22.5888 6.10849C26.9007 6.10079 31.0391 7.80613 34.0937 10.8494C37.1484 13.8927 38.8692 18.0247 38.8775 22.3366C38.874 31.2786 31.5642 38.5542 22.5826 38.5542ZM31.5202 26.4086C31.0307 26.1643 28.6198 24.9848 28.1733 24.8222C27.7269 24.6596 27.3973 24.5778 27.0712 25.0665C26.7451 25.5552 25.8056 26.6485 25.5199 26.9781C25.2343 27.3077 24.9486 27.3437 24.4591 27.0994C23.9695 26.8551 22.3901 26.3409 20.5189 24.6798C19.0626 23.3869 18.08 21.7908 17.7943 21.303C17.5087 20.8152 17.7636 20.5507 18.0088 20.3081C18.2294 20.0893 18.4983 19.7386 18.7436 19.4538C18.9888 19.169 19.0705 18.9651 19.2331 18.6399C19.3957 18.3147 19.3148 18.03 19.1927 17.7865C19.0705 17.5431 18.0905 15.1428 17.6827 14.1663C17.2846 13.2153 16.8812 13.3445 16.5806 13.3296C16.2949 13.3155 15.9653 13.312 15.641 13.312C15.3931 13.3185 15.1491 13.376 14.9244 13.4809C14.6997 13.5858 14.4991 13.736 14.335 13.922C13.8858 14.4106 12.6202 15.5919 12.6202 17.9895C12.6202 20.3872 14.378 22.7075 14.6206 23.0327C14.8632 23.3579 18.0747 28.2824 22.9887 30.3944C23.9011 30.7852 24.8335 31.1279 25.7818 31.421C26.9552 31.7919 28.023 31.74 28.8668 31.6143C29.8081 31.4746 31.7672 30.4349 32.1741 29.2958C32.5811 28.1567 32.5819 27.1811 32.4598 26.9781C32.3376 26.7751 32.0106 26.652 31.5202 26.4086Z" fill="white"/>
</svg>
